<svg width="74" height="17" viewBox="0 0 74 17" fill="none" xmlns="http://www.w3.org/2000/svg">
<path d="M8 2L1 9L8 16" stroke="#D5DDE3" stroke-linecap="round" stroke-linejoin="round"/>
<path d="M17.424 14.192C16.496 14.192 15.6693 13.9627 14.944 13.504C14.2187 13.0453 13.648 12.384 13.232 11.52C12.8267 10.6453 12.624 9.60533 12.624 8.4C12.624 7.19467 12.8267 6.16 13.232 5.296C13.648 4.42133 14.2187 3.75467 14.944 3.296C15.6693 2.83733 16.496 2.608 17.424 2.608C18.352 2.608 19.1787 2.83733 19.904 3.296C20.6293 3.75467 21.1947 4.42133 21.6 5.296C22.016 6.16 22.224 7.19467 22.224 8.4C22.224 9.60533 22.016 10.6453 21.6 11.52C21.1947 12.384 20.6293 13.0453 19.904 13.504C19.1787 13.9627 18.352 14.192 17.424 14.192ZM17.424 12C18.1067 12 18.64 11.7067 19.024 11.12C19.4187 10.5333 19.616 9.62667 19.616 8.4C19.616 7.17333 19.4187 6.26667 19.024 5.68C18.64 5.09333 18.1067 4.8 17.424 4.8C16.752 4.8 16.2187 5.09333 15.824 5.68C15.44 6.26667 15.248 7.17333 15.248 8.4C15.248 9.62667 15.44 10.5333 15.824 11.12C16.2187 11.7067 16.752 12 17.424 12ZM28.5591 7.36C29.5405 7.52 30.2925 7.888 30.8151 8.464C31.3378 9.02933 31.5991 9.73333 31.5991 10.576C31.5991 11.2267 31.4285 11.8293 31.0871 12.384C30.7458 12.928 30.2231 13.3653 29.5191 13.696C28.8258 14.0267 27.9725 14.192 26.9591 14.192C26.1698 14.192 25.3911 14.0907 24.6231 13.888C23.8658 13.6747 23.2205 13.376 22.6871 12.992L23.6951 11.008C24.1218 11.328 24.6125 11.5787 25.1671 11.76C25.7325 11.9307 26.3085 12.016 26.8951 12.016C27.5458 12.016 28.0578 11.8933 28.4311 11.648C28.8045 11.392 28.9911 11.0347 28.9911 10.576C28.9911 9.65867 28.2925 9.2 26.8951 9.2H25.7111V7.488L28.0151 4.88H23.2471V2.8H31.0871V4.48L28.5591 7.36Z" fill="#B777BE"/>
<path d="M41.5831 0.527999H42.6231L37.3431 15.6H36.3031L41.5831 0.527999Z" fill="#D5DDE3"/>
<path d="M50.186 2.8V14H49.034V3.824H46.394V2.8H50.186ZM62.3833 11.056H60.1433V14H58.9913V11.056H52.6713V10.224L58.6073 2.8H59.8873L54.1593 10.032H59.0233V7.44H60.1433V10.032H62.3833V11.056Z" fill="#C6C6C6"/>
<path d="M66 16L73 9L66 2" stroke="#B777BE" stroke-linecap="round" stroke-linejoin="round"/>
</svg>
