<svg width="19" height="20" viewBox="0 0 19 20" fill="none" xmlns="http://www.w3.org/2000/svg">
<path d="M16.981 11.2046C16.491 15.2646 13.581 15.5246 13.051 15.7046C12.821 15.7746 10.701 16.3146 8.04102 16.1446L5.15102 19.3446V15.6546L5.13102 15.6446C1.25102 14.5446 1.38102 10.4046 1.43102 8.23456C1.47102 6.06456 1.86102 4.29456 3.05102 3.09456C5.17102 1.12456 9.55102 1.41456 9.55102 1.41456C13.251 1.43456 15.021 2.57456 15.431 2.95456C16.791 4.15456 17.481 7.01456 16.981 11.2046ZM16.431 1.94456C15.941 1.48456 13.981 0.0245636 9.61102 0.0145636C9.61102 0.0145636 4.46102 -0.305436 1.95102 2.05456C0.551017 3.48456 0.061017 5.58456 0.011017 8.17456C-0.038983 10.7746 -0.108983 15.6446 4.47102 16.9646V18.9746C4.47102 18.9746 4.44102 19.7946 4.96102 19.9546C5.59102 20.1546 5.97102 19.5346 6.57102 18.8646C6.90102 18.4946 7.36102 17.9546 7.71102 17.5446C10.841 17.8146 13.261 17.1946 13.531 17.1046C14.161 16.8946 17.741 16.4246 18.331 11.5546C18.941 6.54456 18.051 3.37456 16.431 1.94456Z" fill="#B777BE"/>
<path d="M13.641 11.8146C13.641 11.8146 13.051 11.3146 12.771 11.0946C12.501 10.8946 12.071 10.6146 11.831 10.4846C11.401 10.2346 10.961 10.3946 10.781 10.6346L10.401 11.1246C10.211 11.3746 9.91096 11.3346 9.83096 11.3146C9.27096 11.1746 8.68096 10.8246 8.07096 10.2346C7.44096 9.63461 7.07096 9.01461 6.94096 8.36461L6.93096 8.32461C6.89096 8.05461 6.94096 7.93461 7.05096 7.75461L7.07096 7.73461C7.33096 7.49461 7.80096 7.20461 7.86096 6.93461C8.05096 6.45461 7.24096 5.45461 7.12096 5.28461C7.12096 5.28461 6.53096 4.50461 6.32096 4.35461C6.10096 4.17461 5.75096 4.06461 5.40096 4.28461L5.38096 4.29461C4.37096 4.97461 4.00096 5.37461 4.10096 5.96461L4.15096 6.19461C4.66096 7.81461 5.66096 9.54461 7.13096 11.0746C8.59096 12.5946 10.181 13.5046 11.731 14.1346C12.141 14.2646 12.561 14.1546 12.991 13.7846H13.001C13.331 13.4746 13.591 13.1446 13.791 12.7946V12.7846C13.981 12.4046 13.921 12.0546 13.641 11.8146Z" fill="#B777BE"/>
<path d="M11.211 8.26455C11.151 8.26455 11.101 8.21455 11.091 8.15455C11.071 7.73455 10.961 7.41455 10.751 7.19455C10.551 6.98455 10.251 6.86455 9.85097 6.84455C9.79097 6.84455 9.74097 6.78455 9.74097 6.71455C9.74097 6.64455 9.80097 6.59455 9.86097 6.60455C10.311 6.63455 10.671 6.77455 10.911 7.03455C11.151 7.29455 11.291 7.66455 11.311 8.14455C11.331 8.20455 11.281 8.26455 11.211 8.26455Z" fill="#B777BE"/>
<path d="M12.371 8.66456C12.301 8.66456 12.251 8.60456 12.251 8.54456C12.271 7.73456 12.031 7.05456 11.551 6.51456C11.311 6.24456 11.021 6.03456 10.681 5.88456C10.341 5.73456 9.95101 5.64456 9.52101 5.60456C9.46101 5.60456 9.41101 5.54456 9.41101 5.47456C9.41101 5.40456 9.47101 5.35456 9.53101 5.36456C10.461 5.43456 11.201 5.76456 11.721 6.34456C12.241 6.92456 12.501 7.66456 12.481 8.53456C12.481 8.61456 12.431 8.66456 12.371 8.66456Z" fill="#B777BE"/>
<path d="M13.551 9.13456C13.491 9.13456 13.431 9.08456 13.431 9.01456C13.421 8.30456 13.321 7.65456 13.111 7.09456C12.901 6.54456 12.591 6.05456 12.191 5.64456C11.781 5.23456 11.321 4.92456 10.811 4.72456C10.301 4.52456 9.74099 4.41456 9.13099 4.41456C9.07099 4.41456 9.01099 4.36456 9.01099 4.29456C9.01099 4.22456 9.06099 4.17456 9.13099 4.17456C10.411 4.18456 11.491 4.62456 12.351 5.48456C12.781 5.91456 13.111 6.43456 13.331 7.02456C13.551 7.60456 13.661 8.28456 13.671 9.02456C13.661 9.08456 13.611 9.13456 13.551 9.13456Z" fill="#B777BE"/>
</svg>
