<svg width="57" height="14" viewBox="0 0 57 14" fill="none" xmlns="http://www.w3.org/2000/svg">
<path d="M4.19189 5.972C4.74389 5.972 5.23189 6.076 5.65589 6.284C6.08789 6.492 6.42389 6.788 6.66389 7.172C6.90389 7.548 7.02389 7.988 7.02389 8.492C7.02389 9.004 6.89989 9.456 6.65189 9.848C6.40389 10.24 6.05989 10.544 5.61989 10.76C5.18789 10.968 4.69989 11.072 4.15589 11.072C3.04389 11.072 2.19189 10.708 1.59989 9.98C1.00789 9.244 0.711891 8.208 0.711891 6.872C0.711891 5.936 0.871891 5.144 1.19189 4.496C1.51189 3.848 1.95989 3.36 2.53589 3.032C3.11189 2.696 3.78389 2.528 4.55189 2.528C5.38389 2.528 6.04789 2.68 6.54389 2.984L6.19589 3.68C5.79589 3.416 5.25189 3.284 4.56389 3.284C3.63589 3.284 2.90789 3.58 2.37989 4.172C1.85189 4.756 1.58789 5.608 1.58789 6.728C1.58789 6.928 1.59989 7.156 1.62389 7.412C1.83189 6.956 2.16389 6.604 2.61989 6.356C3.07589 6.1 3.59989 5.972 4.19189 5.972ZM4.11989 10.34C4.72789 10.34 5.21989 10.176 5.59589 9.848C5.97989 9.512 6.17189 9.068 6.17189 8.516C6.17189 7.964 5.97989 7.524 5.59589 7.196C5.21989 6.868 4.70789 6.704 4.05989 6.704C3.63589 6.704 3.25989 6.784 2.93189 6.944C2.61189 7.104 2.35989 7.324 2.17589 7.604C1.99189 7.884 1.89989 8.196 1.89989 8.54C1.89989 8.86 1.98389 9.156 2.15189 9.428C2.32789 9.7 2.58389 9.92 2.91989 10.088C3.25589 10.256 3.65589 10.34 4.11989 10.34ZM11.3724 11.072C10.7244 11.072 10.1444 10.9 9.63239 10.556C9.12839 10.212 8.73239 9.72 8.44439 9.08C8.16439 8.432 8.02439 7.672 8.02439 6.8C8.02439 5.928 8.16439 5.172 8.44439 4.532C8.73239 3.884 9.12839 3.388 9.63239 3.044C10.1444 2.7 10.7244 2.528 11.3724 2.528C12.0204 2.528 12.5964 2.7 13.1004 3.044C13.6124 3.388 14.0124 3.884 14.3004 4.532C14.5884 5.172 14.7324 5.928 14.7324 6.8C14.7324 7.672 14.5884 8.432 14.3004 9.08C14.0124 9.72 13.6124 10.212 13.1004 10.556C12.5964 10.9 12.0204 11.072 11.3724 11.072ZM11.3724 10.28C11.8604 10.28 12.2884 10.144 12.6564 9.872C13.0324 9.6 13.3244 9.204 13.5324 8.684C13.7404 8.164 13.8444 7.536 13.8444 6.8C13.8444 6.064 13.7404 5.436 13.5324 4.916C13.3244 4.396 13.0324 4 12.6564 3.728C12.2884 3.456 11.8604 3.32 11.3724 3.32C10.8844 3.32 10.4524 3.456 10.0764 3.728C9.70839 4 9.42039 4.396 9.21239 4.916C9.00439 5.436 8.90039 6.064 8.90039 6.8C8.90039 7.536 9.00439 8.164 9.21239 8.684C9.42039 9.204 9.70839 9.6 10.0764 9.872C10.4524 10.144 10.8844 10.28 11.3724 10.28ZM22.9503 4.64C23.5423 4.64 24.0783 4.776 24.5583 5.048C25.0383 5.312 25.4143 5.688 25.6863 6.176C25.9583 6.664 26.0943 7.22 26.0943 7.844C26.0943 8.476 25.9583 9.036 25.6863 9.524C25.4143 10.012 25.0383 10.392 24.5583 10.664C24.0863 10.928 23.5503 11.06 22.9503 11.06C22.4383 11.06 21.9743 10.956 21.5583 10.748C21.1503 10.532 20.8143 10.22 20.5503 9.812V13.328H19.6983V4.688H20.5143V5.936C20.7703 5.52 21.1063 5.2 21.5223 4.976C21.9463 4.752 22.4223 4.64 22.9503 4.64ZM22.8903 10.304C23.3303 10.304 23.7303 10.204 24.0903 10.004C24.4503 9.796 24.7303 9.504 24.9303 9.128C25.1383 8.752 25.2423 8.324 25.2423 7.844C25.2423 7.364 25.1383 6.94 24.9303 6.572C24.7303 6.196 24.4503 5.904 24.0903 5.696C23.7303 5.488 23.3303 5.384 22.8903 5.384C22.4423 5.384 22.0383 5.488 21.6783 5.696C21.3263 5.904 21.0463 6.196 20.8383 6.572C20.6383 6.94 20.5383 7.364 20.5383 7.844C20.5383 8.324 20.6383 8.752 20.8383 9.128C21.0463 9.504 21.3263 9.796 21.6783 10.004C22.0383 10.204 22.4423 10.304 22.8903 10.304ZM33.1131 4.688L29.9571 11.756C29.7011 12.348 29.4051 12.768 29.0691 13.016C28.7331 13.264 28.3291 13.388 27.8571 13.388C27.5531 13.388 27.2691 13.34 27.0051 13.244C26.7411 13.148 26.5131 13.004 26.3211 12.812L26.7171 12.176C27.0371 12.496 27.4211 12.656 27.8691 12.656C28.1571 12.656 28.4011 12.576 28.6011 12.416C28.8091 12.256 29.0011 11.984 29.1771 11.6L29.4531 10.988L26.6331 4.688H27.5211L29.8971 10.052L32.2731 4.688H33.1131ZM37.4068 4.844C37.9908 4.844 38.5108 4.976 38.9668 5.24C39.4308 5.496 39.7908 5.86 40.0468 6.332C40.3028 6.796 40.4308 7.328 40.4308 7.928C40.4308 8.544 40.2948 9.092 40.0228 9.572C39.7588 10.044 39.3868 10.412 38.9068 10.676C38.4268 10.94 37.8748 11.072 37.2508 11.072C36.2028 11.072 35.3908 10.704 34.8148 9.968C34.2388 9.232 33.9508 8.216 33.9508 6.92C33.9508 5.568 34.2068 4.532 34.7188 3.812C35.2388 3.092 36.0468 2.604 37.1428 2.348L39.9748 1.7L40.1188 2.48L37.4548 3.092C36.5508 3.292 35.8868 3.648 35.4628 4.16C35.0388 4.664 34.8068 5.412 34.7668 6.404C35.0228 5.916 35.3788 5.536 35.8348 5.264C36.2908 4.984 36.8148 4.844 37.4068 4.844ZM37.2748 10.364C37.7148 10.364 38.1068 10.264 38.4508 10.064C38.8028 9.856 39.0748 9.568 39.2668 9.2C39.4668 8.832 39.5668 8.416 39.5668 7.952C39.5668 7.488 39.4708 7.08 39.2788 6.728C39.0868 6.376 38.8148 6.104 38.4628 5.912C38.1188 5.712 37.7228 5.612 37.2748 5.612C36.8268 5.612 36.4268 5.712 36.0748 5.912C35.7308 6.104 35.4588 6.376 35.2588 6.728C35.0668 7.08 34.9708 7.488 34.9708 7.952C34.9708 8.416 35.0668 8.832 35.2588 9.2C35.4588 9.568 35.7348 9.856 36.0868 10.064C36.4388 10.264 36.8348 10.364 37.2748 10.364ZM44.7049 0.895999H45.4849L41.5249 12.2H40.7449L44.7049 0.895999ZM47.7481 8.192H46.3081V11H45.4561V4.688H46.3081V7.46H47.7601L49.9801 4.688H50.9041L48.4201 7.748L51.0841 11H50.0761L47.7481 8.192ZM56.8928 5.444H53.2808V11H52.4288V4.688H56.8928V5.444Z" fill="#C6C6C6"/>
<path d="M0.0878906 7.22H56.9168V7.82H0.0878906V7.22Z" fill="#C6C6C6"/>
</svg>
