<svg width="18" height="18" viewBox="0 0 18 18" fill="none" xmlns="http://www.w3.org/2000/svg">
<path d="M15.3782 2.619C13.6876 0.927 11.4365 0 9.04068 0C4.09543 0 0.0813661 4.005 0.0723255 8.919C0.0723255 10.494 0.488197 12.024 1.2657 13.374L0 18L4.7554 16.758C6.0663 17.469 7.53993 17.847 9.04068 17.847C13.9769 17.847 18 13.842 18 8.928C18 6.543 17.0688 4.302 15.3782 2.619ZM9.04068 16.335C7.70266 16.335 6.39176 15.975 5.2436 15.3L4.97238 15.138L2.15168 15.876L2.90206 13.14L2.72125 12.861C1.97991 11.682 1.58212 10.314 1.58212 8.919C1.58212 4.833 4.92717 1.503 9.03164 1.503C11.0206 1.503 12.892 2.277 14.3024 3.681C15.7127 5.085 16.4812 6.948 16.4812 8.928C16.4812 13.014 13.1452 16.335 9.04068 16.335ZM13.1271 10.791C12.9011 10.683 11.7981 10.143 11.5992 10.062C11.3913 9.99 11.2466 9.954 11.0929 10.17C10.9392 10.395 10.5143 10.899 10.3877 11.043C10.2612 11.196 10.1256 11.214 9.89955 11.097C9.67353 10.989 8.95028 10.746 8.10045 9.99C7.43144 9.396 6.98845 8.667 6.85284 8.442C6.71723 8.226 6.83476 8.109 6.94324 8.001C7.05173 7.902 7.16926 7.74 7.28679 7.605C7.39528 7.479 7.43144 7.38 7.50377 7.236C7.57609 7.083 7.53993 6.957 7.48569 6.849C7.43144 6.732 6.98845 5.634 6.79859 5.193C6.61778 4.761 6.42793 4.815 6.29232 4.806C6.16575 4.797 6.01205 4.797 5.8674 4.797C5.71371 4.797 5.47865 4.851 5.27072 5.076C5.06278 5.301 4.48418 5.841 4.48418 6.939C4.48418 8.037 5.2888 9.099 5.39729 9.243C5.50578 9.396 6.97941 11.646 9.2215 12.609C9.7549 12.843 10.1708 12.978 10.4962 13.077C11.0296 13.248 11.5178 13.221 11.9066 13.167C12.3405 13.104 13.2356 12.627 13.4164 12.105C13.6062 11.583 13.6062 11.142 13.5429 11.043C13.4977 10.953 13.344 10.899 13.1271 10.791Z" fill="#B777BE"/>
</svg>
