<svg width="216" height="84" viewBox="0 0 216 84" fill="none" xmlns="http://www.w3.org/2000/svg">
<path d="M113.496 22.6475C107.867 28.7406 102.652 35.207 97.8843 42.0031C92.9753 48.8368 88.2514 55.9614 84.5856 63.557L86.6845 62.673C83.4408 59.6429 78.5896 58.7705 74.3687 58.0958C66.985 56.9326 59.399 56.9326 51.9517 57.1653C35.0386 57.7098 18.2058 59.7494 1.64789 63.2604L1.15642 64.1444C46.8346 40.8631 93.86 21.1586 143.626 8.77063C144.204 8.63105 145.864 7.36899 144.43 7.72376C94.2937 20.2106 46.8346 40.0547 0.867315 63.5105C0.641815 63.6326 -0.618671 64.6097 0.381623 64.4003C16.2965 61.0615 32.4583 59.0501 48.7022 58.3866C55.9108 58.0248 63.1364 58.2192 70.3155 58.9682C74.999 59.5091 80.9603 60.3001 84.5914 63.685C85.0539 64.1212 86.4648 63.272 86.6845 62.8068C90.3156 55.2518 95.0164 48.2727 99.8502 41.4738C104.604 34.6676 109.82 28.2003 115.462 22.1183C115.861 21.6937 113.866 22.2637 113.502 22.6475H113.496Z" fill="#1D1D1B"/>
<path d="M110.061 48.0687C108.811 47.7135 107.502 47.6114 106.212 47.7681C104.922 47.9248 103.675 48.3374 102.545 48.9818C101.174 49.7088 98.902 51.5757 99.1853 53.3961C99.4686 55.2165 102.435 54.3151 103.522 53.9428C106.37 53.0008 108.898 51.274 110.819 48.9586C111.229 48.4526 109.182 49.133 108.859 49.4878C107.841 50.587 106.072 52.3958 106.546 54.0824C106.933 55.4666 109.639 54.6989 110.466 54.4954C111.044 54.3558 112.704 53.0937 111.27 53.4543C106.852 54.5593 109.229 50.6743 110.819 48.9586L108.859 49.4878C107.644 51.0216 106.049 52.2054 104.233 52.9192C103.505 53.2042 101.92 53.716 101.388 52.832C100.955 52.0992 101.683 51.0058 102.088 50.4649C103.528 48.5282 106.054 48.6038 108.147 49.1854C108.778 49.3599 110.345 48.1385 110.09 48.0687H110.061Z" fill="#1D1D1B"/>
<path d="M148.709 49.3715C147.437 50.3253 146.269 51.471 146.396 53.1809C146.488 54.3441 147.882 54.3441 148.709 54.2569C152.108 54.0184 155.502 51.5059 157.578 48.9585C157.989 48.4526 155.948 49.133 155.624 49.4878C155.208 49.9414 152.068 53.4717 153.6 54.2336C155.132 54.9955 157.231 53.2565 158.284 52.4888C159.469 51.6048 157.434 52.0933 156.977 52.4423C156.098 53.0995 155.144 53.4659 155.502 52.0526C155.803 50.8894 156.786 49.8426 157.578 48.9818L155.624 49.5111C154.184 51.2558 152.293 52.8203 149.981 53.1402C147.344 53.5066 148.894 50.2671 149.981 49.4471C151.166 48.5631 149.136 49.0516 148.674 49.3947L148.709 49.3715Z" fill="#1D1D1B"/>
<path d="M118.15 48.8541C116.023 48.7726 111.09 53.0299 114.479 54.3851C115.866 54.9666 117.711 53.3963 118.578 52.489C120.538 50.4418 122.007 47.8886 123.51 45.5099C125.904 41.7237 128.257 37.9491 130.749 34.2036C137.243 24.5201 144.736 15.3308 154.126 8.35168C156.7 6.44712 159.425 4.75867 162.273 3.30342C163.713 2.56479 165.205 1.9134 166.714 1.31436C166.373 1.44813 166.673 0.837449 166.402 1.28528C165.517 2.72764 164.453 4.07694 163.453 5.43788C153.496 18.9891 143.216 32.3018 133.27 45.8647C128.882 51.8493 124.459 57.8455 120.446 64.0919C119.432 65.5044 118.576 67.0259 117.896 68.6283C117.318 70.2743 119.59 69.082 120.116 68.512C125.575 62.6495 128.558 54.5537 135.323 49.8311C138.653 47.5048 138.255 52.3553 139.793 53.6464C142.383 55.8274 148.09 50.8548 149.842 49.5345C150.998 48.6447 148.992 49.139 148.529 49.488C147.205 50.4825 143.088 54.449 141.533 52.2448C140.897 51.3433 140.868 50.0987 140.319 49.1332C139.018 46.8417 135.496 48.8192 134.011 49.7788C127.211 54.1699 123.331 62.4111 118.491 68.6516C117.786 69.5647 119.879 68.861 119.891 68.2794C119.912 68.0935 119.958 67.9114 120.03 67.7385C120.326 67.0004 120.69 66.2916 121.117 65.6215C122.493 63.2544 124.054 60.9978 125.603 58.7412C130.42 51.762 135.485 44.9108 140.55 38.0887C149.553 25.9682 159.006 14.1269 167.679 1.74474C167.847 1.50629 169.241 -0.191977 168.182 -4.98109e-05C163.245 0.982849 158.064 4.59456 153.987 7.42112C144.777 13.8187 137.341 22.5077 130.9 31.6214C127.35 36.6522 124.152 41.9214 120.845 47.1209C119.794 48.8336 118.651 50.4877 117.422 52.0761C117.065 52.5879 116.63 53.0394 116.132 53.4138C116.583 53.1346 116.664 53.3324 116.317 53.1928C115.282 52.7798 115.433 49.9475 116.485 49.9882C117.011 49.9882 118.798 48.825 118.15 48.825V48.8541Z" fill="#1D1D1B"/>
<path d="M159.197 46.964C157.393 51.797 165.222 50.8374 167.523 49.2438L165.887 49.4881C164.153 51.4364 162.586 55.6007 166.766 54.1874C169.559 53.2394 171.698 50.8955 173.959 49.1217C174.872 48.4121 175.208 49.2613 175.422 50.2849C175.757 51.8726 175.618 54.577 177.781 54.7224C182.135 55.0074 187.09 49.0344 189.692 46.4347L187.865 46.8244C177.856 57.6304 169.94 70.821 163.002 83.7441L165.02 82.7961C160.834 80.429 153.936 76.6137 153.918 71.013C153.918 66.7324 159.411 64.6503 162.487 63.1265C166.483 61.1491 170.513 59.2298 174.601 57.4327C178.455 55.7422 182.383 54.2242 186.384 52.8788C188.53 52.1518 190.704 51.5295 192.889 50.9363C193.884 50.6687 194.89 50.4245 195.89 50.186C197.214 49.8661 198.313 49.6044 197.411 51.1398C196.214 53.2743 194.277 55.0714 193.699 57.5141C193.363 58.9623 195.798 57.6072 196.139 57.2989C197.047 56.4847 197.399 55.0365 198.006 54.0187C198.838 52.7033 199.854 51.5161 201.025 50.4942C203.095 48.5866 206.373 46.3242 209.322 46.4231C210.704 46.458 210.293 47.5572 209.507 48.0108C208.303 48.6391 207.054 49.1775 205.772 49.6218C203.661 50.4535 201.111 51.1689 199.359 52.681C197.607 54.1932 200.296 54.6934 201.499 54.8969C205.65 55.6065 210.004 55.4785 214.219 55.5367C214.751 55.5367 216.497 54.3735 215.885 54.3735C211.781 54.4271 207.678 54.2329 203.598 53.7919C203.384 53.7919 199.857 53.2103 201.117 52.4019C203.939 50.6164 207.425 49.9534 210.368 48.3307C211.051 47.9643 212.352 47.2722 212.421 46.3707C212.548 44.6259 209.472 45.3413 208.628 45.5449C205.939 46.1846 203.395 47.6909 201.163 49.2845C199.928 50.1898 198.783 51.2144 197.746 52.3437C197.13 53.0266 196.571 53.76 196.075 54.5363C195.636 55.1994 195.167 57.0721 194.595 57.4443L195.988 57.0605C195.017 56.5312 199.706 50.3605 200.036 49.3252C200.579 47.72 194.208 49.7963 193.722 49.9068C184.777 52.2332 176.22 55.8275 167.87 59.794C163.944 61.6493 159.874 63.3941 156.22 65.7204C154.069 67.0988 152.109 69.1402 151.843 71.7865C151.264 77.3349 159.18 81.6736 163.1 83.907C163.632 84.2094 164.881 83.4126 165.124 82.959C172.005 70.1289 179.88 57.0198 189.825 46.2893C190.253 45.824 188.31 46.3707 188.003 46.6732C186.847 47.8363 180.094 55.7402 178.313 52.7915C177.48 51.4132 177.902 49.587 177.156 48.1737C176.283 46.5394 173.548 48.3947 172.652 49.0519C171.611 49.8196 167.032 54.5189 166.136 52.9951C165.436 51.8319 167.159 49.7033 167.87 48.9239C168.362 48.3772 166.431 49.0286 166.24 49.1624C164.158 50.6047 160.331 48.8251 161.331 46.1497C161.435 45.8647 159.452 46.3242 159.226 46.9291L159.197 46.964Z" fill="#1D1D1B"/>
</svg>
